<?xml version="1.0" encoding="UTF-8" standalone="no"?>
<!-- Created with Inkscape (http://www.inkscape.org/) -->

<svg
   version="1.1"
   id="svg2"
   width="961.38666"
   height="959.50665"
   viewBox="0 0 961.38666 959.50665"
   sodipodi:docname="IEEE-USA-Stacked-logo.eps"
   xmlns:inkscape="http://www.inkscape.org/namespaces/inkscape"
   xmlns:sodipodi="http://sodipodi.sourceforge.net/DTD/sodipodi-0.dtd"
   xmlns="http://www.w3.org/2000/svg"
   xmlns:svg="http://www.w3.org/2000/svg">
  <defs
     id="defs6" />
  <sodipodi:namedview
     id="namedview4"
     pagecolor="#ffffff"
     bordercolor="#000000"
     borderopacity="0.25"
     inkscape:showpageshadow="2"
     inkscape:pageopacity="0.0"
     inkscape:pagecheckerboard="0"
     inkscape:deskcolor="#d1d1d1" />
  <g
     id="g8"
     inkscape:groupmode="layer"
     inkscape:label="ink_ext_XXXXXX"
     transform="matrix(1.3333333,0,0,-1.3333333,0,959.50667)">
    <g
       id="g10"
       transform="scale(0.1)">
      <path
         d="M 7196.31,4.69922 H 4.6875 V 7196.3 H 7196.31 V 4.69922"
         style="fill:#bf1c2f;fill-opacity:1;fill-rule:nonzero;stroke:none"
         id="path12" />
      <path
         d="M 7210.41,0 H 0 V 3595.8 H 7210.41 V 0"
         style="fill:#1f375c;fill-opacity:1;fill-rule:nonzero;stroke:none"
         id="path14" />
      <path
         d="M 1112.23,4195.69 H 398.363 V 6505.5 H 1112.23 V 4195.69"
         style="fill:#ffffff;fill-opacity:1;fill-rule:nonzero;stroke:none"
         id="path16" />
      <path
         d="M 3015.1,4195.69 H 1281.03 V 6505.5 H 3015.1 V 5973.52 H 1974.65 v -336.69 h 841.79 V 5121.61 H 1974.65 V 4747.86 H 3015.1 v -552.17"
         style="fill:#ffffff;fill-opacity:1;fill-rule:nonzero;stroke:none"
         id="path18" />
      <path
         d="M 4925.38,4195.69 H 3191.32 V 6505.5 H 4925.38 V 5973.52 H 3884.94 v -336.69 h 841.78 v -515.22 h -841.78 v -373.75 h 1040.44 v -552.17"
         style="fill:#ffffff;fill-opacity:1;fill-rule:nonzero;stroke:none"
         id="path20" />
      <path
         d="M 6835.62,4195.69 H 5101.57 V 6505.5 H 6835.62 V 5973.52 H 5795.19 v -336.69 h 841.78 v -515.22 h -841.78 v -373.75 h 1040.43 v -552.17"
         style="fill:#ffffff;fill-opacity:1;fill-rule:nonzero;stroke:none"
         id="path22" />
      <path
         d="m 700.156,2740.36 c 0,117.17 -27.965,172.28 -118.894,172.28 H 420.449 c -21.058,0 -27.969,6.9 -27.969,31.01 v 79.29 c 0,20.65 6.911,27.56 34.875,27.56 34.997,0 202.836,-10.3 538.579,-10.3 293.746,0 461.546,10.3 503.566,10.3 20.94,0 27.97,-6.91 27.97,-24.11 v -86.14 c 0,-20.71 -7.03,-27.61 -27.97,-27.61 h -146.86 c -104.96,0 -167.81,-62.03 -171.34,-134.36 -3.5,-41.3 -10.54,-248.09 -10.54,-447.98 v -427.27 c 0,-172.27 3.52,-416.92 10.54,-527.23 10.52,-158.45 38.39,-316.9 122.41,-427.14 118.89,-158.57 307.66,-213.691 475.48,-213.691 160.93,0 356.71,62.031 468.59,165.351 132.95,130.97 202.82,330.85 202.82,582.33 v 620.26 c 0,275.61 -27.99,578.94 -38.39,658.17 -10.54,89.53 -66.48,151.56 -143.47,151.56 h -125.8 c -20.95,0 -27.99,10.36 -27.99,24.16 v 86.14 c 0,20.65 7.04,27.56 27.99,27.56 34.86,0 195.77,-10.3 426.57,-10.3 216.83,0 328.72,10.3 356.69,10.3 31.48,0 34.99,-10.3 34.99,-27.56 v -79.29 c 0,-20.65 -3.51,-31.01 -20.94,-31.01 h -125.92 c -125.94,0 -139.86,-96.43 -146.88,-134.36 -7.03,-41.3 -7.03,-523.75 -7.03,-568.51 0,-48.29 -6.91,-647.83 -20.94,-785.68 C 2588.55,1141.52 2504.62,927.941 2315.73,762.578 2168.86,631.621 1945,548.879 1679.34,548.879 c -167.81,0 -370.75,27.633 -503.58,82.742 -202.803,82.641 -342.658,241.211 -412.643,461.679 -48.926,151.68 -62.961,379.08 -62.961,830.44 v 816.62"
         style="fill:#ffffff;fill-opacity:1;fill-rule:nonzero;stroke:none"
         id="path24" />
      <path
         d="m 2994.15,1368.98 c 13.93,0 20.94,-6.87 20.94,-27.58 6.91,-110.23 35.01,-241.2 132.82,-392.74 104.99,-165.48 286.75,-248.101 461.58,-248.101 188.86,0 454.67,117.152 454.67,403.101 0,316.98 -146.9,420.42 -517.52,558.17 -111.98,41.44 -342.65,137.85 -510.57,289.53 -118.91,110.25 -174.88,282.51 -174.88,492.7 0,192.92 77.02,351.43 244.83,482.38 139.85,117.15 293.63,165.42 496.56,165.42 230.78,0 370.65,-55.18 440.62,-82.68 34.99,-13.8 55.94,-6.89 73.38,10.31 l 45.52,44.81 c 13.93,13.76 27.96,20.66 48.92,20.66 20.95,0 27.97,-20.66 27.97,-55.17 0,-55.12 55.94,-537.52 55.94,-571.93 0,-13.8 -6.9,-20.71 -21.08,-24.17 l -55.82,-17.26 c -14.03,-3.38 -27.97,0 -34.99,20.72 -34.98,96.54 -90.95,234.28 -216.85,365.24 -90.81,96.55 -202.8,144.77 -363.61,144.77 -279.79,0 -391.68,-220.54 -391.68,-348.04 0,-117.15 13.92,-220.6 97.93,-310.13 90.82,-89.59 286.76,-172.26 426.58,-213.64 202.93,-62.02 370.64,-130.89 503.58,-268.75 111.89,-117.15 174.85,-261.86 174.85,-492.81 0,-420.251 -279.71,-764.911 -741.39,-764.911 -286.7,0 -454.54,62.031 -594.38,165.383 -42,27.609 -62.98,41.429 -83.92,41.429 -21.06,0 -34.99,-27.64 -55.94,-62.043 -21.05,-34.5 -34.97,-41.429 -62.96,-41.429 -28.08,0 -42,20.711 -42,55.25 7,41.293 55.94,599.461 62.95,640.841 3.51,20.67 7.04,27.49 20.96,27.49 l 76.99,-6.82"
         style="fill:#ffffff;fill-opacity:1;fill-rule:nonzero;stroke:none"
         id="path26" />
      <path
         d="m 5805.53,1548.21 c 41.9,-127.57 181.87,-568.55 209.84,-692.601 20.96,-93.031 -7.03,-127.558 -104.88,-127.558 h -91.03 c -20.96,0 -27.97,-6.891 -27.97,-27.492 v -68.938 c 0,-20.711 7.01,-41.312 34.99,-41.312 77.02,0 195.78,10.312 489.52,10.312 384.69,0 454.66,-10.312 517.62,-10.312 27.98,0 35.01,20.601 35.01,41.312 v 72.328 c 0,17.211 -7.03,24.102 -27.97,24.102 h -112 c -69.87,0 -160.8,41.429 -223.76,158.578 -48.93,93.031 -272.8,733.891 -356.57,1002.641 -63.11,220.55 -335.76,992.36 -398.74,1206.05 -7.01,20.59 -21.07,62.02 -42.02,62.02 -17.43,0 -31.36,-13.8 -52.44,-34.47 -42,-41.36 -234.27,-144.7 -346.16,-172.32 -27.97,-6.9 -34.96,-20.65 -34.96,-34.41 0,-10.35 10.52,-31.02 20.94,-41.36 21.06,-20.65 0,-82.68 -6.92,-117.14 -34.98,-89.6 -318.19,-833.9 -342.67,-902.84 C 4840.4,1565.41 4588.55,945.16 4553.68,883.121 4490.72,776.398 4427.74,728.051 4329.82,728.051 h -104.86 c -13.94,0 -20.96,-6.891 -20.96,-27.492 V 635.02 c 0,-24.11 0,-44.711 20.96,-44.711 48.89,0 125.92,10.312 384.65,10.312 244.82,0 391.6,-10.312 440.62,-10.312 20.95,0 27.96,13.691 27.96,34.421 v 86.122 c 0,10.308 -7.01,17.199 -34.98,17.199 h -146.88 c -69.85,0 -125.9,37.937 -125.9,82.75 0,17.199 0,44.808 7,72.32 17.57,93.039 188.77,585.839 216.85,665.089 z M 5043.21,1686 c 24.44,79.29 339.27,926.93 353.19,971.69 10.54,31.01 24.46,44.76 45.51,44.76 13.94,0 20.96,-20.6 34.9,-61.96 21.05,-68.94 258.86,-854.6 293.71,-954.49 h -727.31"
         style="fill:#ffffff;fill-opacity:1;fill-rule:nonzero;stroke:none"
         id="path28" />
    </g>
  </g>
</svg>
